{
	"asset":{
		"version":"2.0",
		"generator":"Houdini GLTF 2.0 Exporter"
	},
	"accessors":[
		{
			"bufferView":0,
			"componentType":5123,
			"count":15573,
			"type":"SCALAR",
			"min":[0
			],
			"max":[15572
			]
		},
		{
			"bufferView":1,
			"componentType":5126,
			"count":15573,
			"type":"VEC3",
			"min":[0.294,-7.28100014,-65.340004
			],
			"max":[10.4860001,-2.61200023,-0.829000056
			]
		},
		{
			"bufferView":2,
			"componentType":5126,
			"count":15573,
			"type":"VEC2",
			"min":[0,-1022
			],
			"max":[1023,1
			]
		},
		{
			"bufferView":3,
			"componentType":5126,
			"count":15573,
			"type":"VEC3",
			"min":[-0.999968052,-0.999968052,-1
			],
			"max":[1,1,0.999935985
			]
		}
	],
	"buffers":[
		{
			"uri":"02_data.bin",
			"byteLength":529484,
			"name":"main_buffer"
		}
	],
	"bufferViews":[
		{
			"buffer":0,
			"byteLength":31146,
			"target":34963
		},
		{
			"buffer":0,
			"byteOffset":31148,
			"byteLength":186876,
			"target":34962
		},
		{
			"buffer":0,
			"byteOffset":218024,
			"byteLength":124584,
			"target":34962
		},
		{
			"buffer":0,
			"byteOffset":342608,
			"byteLength":186876,
			"target":34962
		}
	],
	"nodes":[
		{
			"name":"geo1",
			"mesh":0
		}
	],
	"meshes":[
		{
			"primitives":[
				{
					"attributes":{
						"NORMAL":3,
						"TEXCOORD_0":2,
						"POSITION":1
					},
					"indices":0
				}
			],
			"name":"reverse1"
		}
	],
	"scenes":[
		{
			"nodes":[0
			]
		}
	],
	"scene":0
}
