{
	"asset":{
		"version":"2.0",
		"generator":"Houdini GLTF 2.0 Exporter"
	},
	"accessors":[
		{
			"bufferView":0,
			"componentType":5125,
			"count":42630,
			"type":"SCALAR",
			"min":[0
			],
			"max":[42629
			]
		},
		{
			"bufferView":1,
			"componentType":5126,
			"count":42630,
			"type":"VEC3",
			"min":[2.24300003,-7.20200014,-64.2490005
			],
			"max":[10.6550007,-3.55100012,-0.0230000019
			]
		},
		{
			"bufferView":2,
			"componentType":5126,
			"count":42630,
			"type":"VEC2",
			"min":[0,-1022
			],
			"max":[1023,1
			]
		},
		{
			"bufferView":3,
			"componentType":5126,
			"count":42630,
			"type":"VEC3",
			"min":[-0.999968052,-0.999968052,-0.999968052
			],
			"max":[0.999584258,0.999872088,1
			]
		}
	],
	"buffers":[
		{
			"uri":"03_data.bin",
			"byteLength":1534680,
			"name":"main_buffer"
		}
	],
	"bufferViews":[
		{
			"buffer":0,
			"byteLength":170520,
			"target":34963
		},
		{
			"buffer":0,
			"byteOffset":170520,
			"byteLength":511560,
			"target":34962
		},
		{
			"buffer":0,
			"byteOffset":682080,
			"byteLength":341040,
			"target":34962
		},
		{
			"buffer":0,
			"byteOffset":1023120,
			"byteLength":511560,
			"target":34962
		}
	],
	"nodes":[
		{
			"name":"geo1",
			"mesh":0
		}
	],
	"meshes":[
		{
			"primitives":[
				{
					"attributes":{
						"NORMAL":3,
						"TEXCOORD_0":2,
						"POSITION":1
					},
					"indices":0
				}
			],
			"name":"reverse2"
		}
	],
	"scenes":[
		{
			"nodes":[0
			]
		}
	],
	"scene":0
}
