{
	"asset":{
		"version":"2.0",
		"generator":"Houdini GLTF 2.0 Exporter"
	},
	"accessors":[
		{
			"bufferView":0,
			"componentType":5125,
			"count":43761,
			"type":"SCALAR",
			"min":[0
			],
			"max":[43760
			]
		},
		{
			"bufferView":1,
			"componentType":5126,
			"count":43761,
			"type":"VEC3",
			"min":[1.88800013,-7.27200031,-64.2140045
			],
			"max":[10.6500006,-2.69000006,-0.223000005
			]
		},
		{
			"bufferView":2,
			"componentType":5126,
			"count":43761,
			"type":"VEC2",
			"min":[0,-1022
			],
			"max":[1023,1
			]
		},
		{
			"bufferView":3,
			"componentType":5126,
			"count":43761,
			"type":"VEC3",
			"min":[-0.999968052,-0.999872088,-0.999872088
			],
			"max":[0.999968052,0.999872088,0.999840021
			]
		}
	],
	"buffers":[
		{
			"uri":"04_data.bin",
			"byteLength":1575396,
			"name":"main_buffer"
		}
	],
	"bufferViews":[
		{
			"buffer":0,
			"byteLength":175044,
			"target":34963
		},
		{
			"buffer":0,
			"byteOffset":175044,
			"byteLength":525132,
			"target":34962
		},
		{
			"buffer":0,
			"byteOffset":700176,
			"byteLength":350088,
			"target":34962
		},
		{
			"buffer":0,
			"byteOffset":1050264,
			"byteLength":525132,
			"target":34962
		}
	],
	"nodes":[
		{
			"name":"geo1",
			"mesh":0
		}
	],
	"meshes":[
		{
			"primitives":[
				{
					"attributes":{
						"NORMAL":3,
						"TEXCOORD_0":2,
						"POSITION":1
					},
					"indices":0
				}
			],
			"name":"reverse3"
		}
	],
	"scenes":[
		{
			"nodes":[0
			]
		}
	],
	"scene":0
}
