{
	"asset":{
		"version":"2.0",
		"generator":"Houdini GLTF 2.0 Exporter"
	},
	"accessors":[
		{
			"bufferView":0,
			"componentType":5123,
			"count":16605,
			"type":"SCALAR",
			"min":[0
			],
			"max":[16604
			]
		},
		{
			"bufferView":1,
			"componentType":5126,
			"count":16605,
			"type":"VEC3",
			"min":[0.604000032,-7.26000023,-64.6290054
			],
			"max":[10.6710005,-1.3490001,-0.555000007
			]
		},
		{
			"bufferView":2,
			"componentType":5126,
			"count":16605,
			"type":"VEC2",
			"min":[0,-1022
			],
			"max":[1023,1
			]
		},
		{
			"bufferView":3,
			"componentType":5126,
			"count":16605,
			"type":"VEC3",
			"min":[-1,-0.99971205,-1
			],
			"max":[0.999935985,0.999968052,1
			]
		}
	],
	"buffers":[
		{
			"uri":"05_data.bin",
			"byteLength":564572,
			"name":"main_buffer"
		}
	],
	"bufferViews":[
		{
			"buffer":0,
			"byteLength":33210,
			"target":34963
		},
		{
			"buffer":0,
			"byteOffset":33212,
			"byteLength":199260,
			"target":34962
		},
		{
			"buffer":0,
			"byteOffset":232472,
			"byteLength":132840,
			"target":34962
		},
		{
			"buffer":0,
			"byteOffset":365312,
			"byteLength":199260,
			"target":34962
		}
	],
	"nodes":[
		{
			"name":"geo1",
			"mesh":0
		}
	],
	"meshes":[
		{
			"primitives":[
				{
					"attributes":{
						"NORMAL":3,
						"TEXCOORD_0":2,
						"POSITION":1
					},
					"indices":0
				}
			],
			"name":"reverse4"
		}
	],
	"scenes":[
		{
			"nodes":[0
			]
		}
	],
	"scene":0
}
