{
	"asset":{
		"version":"2.0",
		"generator":"Houdini GLTF 2.0 Exporter"
	},
	"accessors":[
		{
			"bufferView":0,
			"componentType":5123,
			"count":23829,
			"type":"SCALAR",
			"min":[0
			],
			"max":[23828
			]
		},
		{
			"bufferView":1,
			"componentType":5126,
			"count":23829,
			"type":"VEC3",
			"min":[2.37800002,-7.24000025,-64.2700043
			],
			"max":[9.62000084,-3.55000019,0
			]
		},
		{
			"bufferView":2,
			"componentType":5126,
			"count":23829,
			"type":"VEC2",
			"min":[0,-1022
			],
			"max":[1023,1
			]
		},
		{
			"bufferView":3,
			"componentType":5126,
			"count":23829,
			"type":"VEC3",
			"min":[-0.999968052,-0.999840021,-0.999935985
			],
			"max":[1,1,0.999935985
			]
		}
	],
	"buffers":[
		{
			"uri":"06_data.bin",
			"byteLength":810188,
			"name":"main_buffer"
		}
	],
	"bufferViews":[
		{
			"buffer":0,
			"byteLength":47658,
			"target":34963
		},
		{
			"buffer":0,
			"byteOffset":47660,
			"byteLength":285948,
			"target":34962
		},
		{
			"buffer":0,
			"byteOffset":333608,
			"byteLength":190632,
			"target":34962
		},
		{
			"buffer":0,
			"byteOffset":524240,
			"byteLength":285948,
			"target":34962
		}
	],
	"nodes":[
		{
			"name":"geo1",
			"mesh":0
		}
	],
	"meshes":[
		{
			"primitives":[
				{
					"attributes":{
						"NORMAL":3,
						"TEXCOORD_0":2,
						"POSITION":1
					},
					"indices":0
				}
			],
			"name":"reverse5"
		}
	],
	"scenes":[
		{
			"nodes":[0
			]
		}
	],
	"scene":0
}
