{
	"asset":{
		"version":"2.0",
		"generator":"Houdini GLTF 2.0 Exporter"
	},
	"accessors":[
		{
			"bufferView":0,
			"componentType":5123,
			"count":13533,
			"type":"SCALAR",
			"min":[0
			],
			"max":[13532
			]
		},
		{
			"bufferView":1,
			"componentType":5126,
			"count":13533,
			"type":"VEC3",
			"min":[0.564999998,-7.23100042,-64.1679993
			],
			"max":[10.6540003,0,-0.177000001
			]
		},
		{
			"bufferView":2,
			"componentType":5126,
			"count":13533,
			"type":"VEC2",
			"min":[0,-1022
			],
			"max":[1023,1
			]
		},
		{
			"bufferView":3,
			"componentType":5126,
			"count":13533,
			"type":"VEC3",
			"min":[-1,-0.999840021,-0.999935985
			],
			"max":[0.999840021,1,1
			]
		}
	],
	"buffers":[
		{
			"uri":"07_data.bin",
			"byteLength":460124,
			"name":"main_buffer"
		}
	],
	"bufferViews":[
		{
			"buffer":0,
			"byteLength":27066,
			"target":34963
		},
		{
			"buffer":0,
			"byteOffset":27068,
			"byteLength":162396,
			"target":34962
		},
		{
			"buffer":0,
			"byteOffset":189464,
			"byteLength":108264,
			"target":34962
		},
		{
			"buffer":0,
			"byteOffset":297728,
			"byteLength":162396,
			"target":34962
		}
	],
	"nodes":[
		{
			"name":"geo1",
			"mesh":0
		}
	],
	"meshes":[
		{
			"primitives":[
				{
					"attributes":{
						"NORMAL":3,
						"TEXCOORD_0":2,
						"POSITION":1
					},
					"indices":0
				}
			],
			"name":"reverse6"
		}
	],
	"scenes":[
		{
			"nodes":[0
			]
		}
	],
	"scene":0
}
