{
	"asset":{
		"version":"2.0",
		"generator":"Houdini GLTF 2.0 Exporter"
	},
	"accessors":[
		{
			"bufferView":0,
			"componentType":5123,
			"count":28998,
			"type":"SCALAR",
			"min":[0
			],
			"max":[28997
			]
		},
		{
			"bufferView":1,
			"componentType":5126,
			"count":28998,
			"type":"VEC3",
			"min":[2.22300005,-7.21000051,-63.9530029
			],
			"max":[9.375,-2.67800021,-0.360000014
			]
		},
		{
			"bufferView":2,
			"componentType":5126,
			"count":28998,
			"type":"VEC2",
			"min":[0,-1022
			],
			"max":[1023,1
			]
		},
		{
			"bufferView":3,
			"componentType":5126,
			"count":28998,
			"type":"VEC3",
			"min":[-1,-0.999840021,-0.999872088
			],
			"max":[1,1,0.999872088
			]
		}
	],
	"buffers":[
		{
			"uri":"08_data.bin",
			"byteLength":985932,
			"name":"main_buffer"
		}
	],
	"bufferViews":[
		{
			"buffer":0,
			"byteLength":57996,
			"target":34963
		},
		{
			"buffer":0,
			"byteOffset":57996,
			"byteLength":347976,
			"target":34962
		},
		{
			"buffer":0,
			"byteOffset":405972,
			"byteLength":231984,
			"target":34962
		},
		{
			"buffer":0,
			"byteOffset":637956,
			"byteLength":347976,
			"target":34962
		}
	],
	"nodes":[
		{
			"name":"geo1",
			"mesh":0
		}
	],
	"meshes":[
		{
			"primitives":[
				{
					"attributes":{
						"NORMAL":3,
						"TEXCOORD_0":2,
						"POSITION":1
					},
					"indices":0
				}
			],
			"name":"reverse7"
		}
	],
	"scenes":[
		{
			"nodes":[0
			]
		}
	],
	"scene":0
}
