{
	"asset":{
		"version":"2.0",
		"generator":"Houdini GLTF 2.0 Exporter"
	},
	"accessors":[
		{
			"bufferView":0,
			"componentType":5125,
			"count":38355,
			"type":"SCALAR",
			"min":[0
			],
			"max":[38354
			]
		},
		{
			"bufferView":1,
			"componentType":5126,
			"count":38355,
			"type":"VEC3",
			"min":[2.296,-7.1880002,-64.0660019
			],
			"max":[9.87300014,-1.93400013,-0.180000007
			]
		},
		{
			"bufferView":2,
			"componentType":5126,
			"count":38355,
			"type":"VEC2",
			"min":[0,-1022
			],
			"max":[1023,1
			]
		},
		{
			"bufferView":3,
			"componentType":5126,
			"count":38355,
			"type":"VEC3",
			"min":[-0.999935985,-0.999935985,-0.999968052
			],
			"max":[0.999935985,0.999840021,0.999935985
			]
		}
	],
	"buffers":[
		{
			"uri":"09_data.bin",
			"byteLength":1380780,
			"name":"main_buffer"
		}
	],
	"bufferViews":[
		{
			"buffer":0,
			"byteLength":153420,
			"target":34963
		},
		{
			"buffer":0,
			"byteOffset":153420,
			"byteLength":460260,
			"target":34962
		},
		{
			"buffer":0,
			"byteOffset":613680,
			"byteLength":306840,
			"target":34962
		},
		{
			"buffer":0,
			"byteOffset":920520,
			"byteLength":460260,
			"target":34962
		}
	],
	"nodes":[
		{
			"name":"geo1",
			"mesh":0
		}
	],
	"meshes":[
		{
			"primitives":[
				{
					"attributes":{
						"NORMAL":3,
						"TEXCOORD_0":2,
						"POSITION":1
					},
					"indices":0
				}
			],
			"name":"reverse8"
		}
	],
	"scenes":[
		{
			"nodes":[0
			]
		}
	],
	"scene":0
}
