{
	"asset":{
		"version":"2.0",
		"generator":"Houdini GLTF 2.0 Exporter"
	},
	"accessors":[
		{
			"bufferView":0,
			"componentType":5125,
			"count":36177,
			"type":"SCALAR",
			"min":[0
			],
			"max":[36176
			]
		},
		{
			"bufferView":1,
			"componentType":5126,
			"count":36177,
			"type":"VEC3",
			"min":[2.3130002,-7.19900036,-63.9230042
			],
			"max":[9.67100048,-2.74900007,-0.140000001
			]
		},
		{
			"bufferView":2,
			"componentType":5126,
			"count":36177,
			"type":"VEC2",
			"min":[0,-1022
			],
			"max":[1023,1
			]
		},
		{
			"bufferView":3,
			"componentType":5126,
			"count":36177,
			"type":"VEC3",
			"min":[-0.999968052,-0.999872088,-0.999840021
			],
			"max":[1,0.999935985,1
			]
		}
	],
	"buffers":[
		{
			"uri":"10_data.bin",
			"byteLength":1302372,
			"name":"main_buffer"
		}
	],
	"bufferViews":[
		{
			"buffer":0,
			"byteLength":144708,
			"target":34963
		},
		{
			"buffer":0,
			"byteOffset":144708,
			"byteLength":434124,
			"target":34962
		},
		{
			"buffer":0,
			"byteOffset":578832,
			"byteLength":289416,
			"target":34962
		},
		{
			"buffer":0,
			"byteOffset":868248,
			"byteLength":434124,
			"target":34962
		}
	],
	"nodes":[
		{
			"name":"geo1",
			"mesh":0
		}
	],
	"meshes":[
		{
			"primitives":[
				{
					"attributes":{
						"NORMAL":3,
						"TEXCOORD_0":2,
						"POSITION":1
					},
					"indices":0
				}
			],
			"name":"reverse9"
		}
	],
	"scenes":[
		{
			"nodes":[0
			]
		}
	],
	"scene":0
}
