{
	"asset":{
		"version":"2.0",
		"generator":"Houdini GLTF 2.0 Exporter"
	},
	"accessors":[
		{
			"bufferView":0,
			"componentType":5125,
			"count":44115,
			"type":"SCALAR",
			"min":[0
			],
			"max":[44114
			]
		},
		{
			"bufferView":1,
			"componentType":5126,
			"count":44115,
			"type":"VEC3",
			"min":[1.13500011,-7.19400024,-63.9450035
			],
			"max":[10.4580002,-3.34700012,-1.08900011
			]
		},
		{
			"bufferView":2,
			"componentType":5126,
			"count":44115,
			"type":"VEC2",
			"min":[0,-1022
			],
			"max":[1023,1
			]
		},
		{
			"bufferView":3,
			"componentType":5126,
			"count":44115,
			"type":"VEC3",
			"min":[-0.999968052,-0.999935985,-0.999872088
			],
			"max":[0.999840021,1,0.999935985
			]
		}
	],
	"buffers":[
		{
			"uri":"11_data.bin",
			"byteLength":1588140,
			"name":"main_buffer"
		}
	],
	"bufferViews":[
		{
			"buffer":0,
			"byteLength":176460,
			"target":34963
		},
		{
			"buffer":0,
			"byteOffset":176460,
			"byteLength":529380,
			"target":34962
		},
		{
			"buffer":0,
			"byteOffset":705840,
			"byteLength":352920,
			"target":34962
		},
		{
			"buffer":0,
			"byteOffset":1058760,
			"byteLength":529380,
			"target":34962
		}
	],
	"nodes":[
		{
			"name":"geo1",
			"mesh":0
		}
	],
	"meshes":[
		{
			"primitives":[
				{
					"attributes":{
						"NORMAL":3,
						"TEXCOORD_0":2,
						"POSITION":1
					},
					"indices":0
				}
			],
			"name":"reverse10"
		}
	],
	"scenes":[
		{
			"nodes":[0
			]
		}
	],
	"scene":0
}
