{
	"asset":{
		"version":"2.0",
		"generator":"Houdini GLTF 2.0 Exporter"
	},
	"accessors":[
		{
			"bufferView":0,
			"componentType":5123,
			"count":26421,
			"type":"SCALAR",
			"min":[0
			],
			"max":[26420
			]
		},
		{
			"bufferView":1,
			"componentType":5126,
			"count":26421,
			"type":"VEC3",
			"min":[0.632000029,-7.28800058,-64.128006
			],
			"max":[10.4500008,-3.40500021,-1.64300013
			]
		},
		{
			"bufferView":2,
			"componentType":5126,
			"count":26421,
			"type":"VEC2",
			"min":[0,-1022
			],
			"max":[1023,1
			]
		},
		{
			"bufferView":3,
			"componentType":5126,
			"count":26421,
			"type":"VEC3",
			"min":[-1,-1,-0.999935985
			],
			"max":[0.999840021,1,1
			]
		}
	],
	"buffers":[
		{
			"uri":"12_data.bin",
			"byteLength":898316,
			"name":"main_buffer"
		}
	],
	"bufferViews":[
		{
			"buffer":0,
			"byteLength":52842,
			"target":34963
		},
		{
			"buffer":0,
			"byteOffset":52844,
			"byteLength":317052,
			"target":34962
		},
		{
			"buffer":0,
			"byteOffset":369896,
			"byteLength":211368,
			"target":34962
		},
		{
			"buffer":0,
			"byteOffset":581264,
			"byteLength":317052,
			"target":34962
		}
	],
	"nodes":[
		{
			"name":"geo1",
			"mesh":0
		}
	],
	"meshes":[
		{
			"primitives":[
				{
					"attributes":{
						"NORMAL":3,
						"TEXCOORD_0":2,
						"POSITION":1
					},
					"indices":0
				}
			],
			"name":"reverse11"
		}
	],
	"scenes":[
		{
			"nodes":[0
			]
		}
	],
	"scene":0
}
