{
	"asset":{
		"version":"2.0",
		"generator":"Houdini GLTF 2.0 Exporter"
	},
	"accessors":[
		{
			"bufferView":0,
			"componentType":5125,
			"count":38943,
			"type":"SCALAR",
			"min":[0
			],
			"max":[38942
			]
		},
		{
			"bufferView":1,
			"componentType":5126,
			"count":38943,
			"type":"VEC3",
			"min":[1.50300002,-7.19900036,-65.1580048
			],
			"max":[10.4860001,-2.72800016,-0.180000007
			]
		},
		{
			"bufferView":2,
			"componentType":5126,
			"count":38943,
			"type":"VEC2",
			"min":[0,-1022
			],
			"max":[1023,1
			]
		},
		{
			"bufferView":3,
			"componentType":5126,
			"count":38943,
			"type":"VEC3",
			"min":[-1,-0.999968052,-0.999968052
			],
			"max":[0.999968052,1,0.999840021
			]
		}
	],
	"buffers":[
		{
			"uri":"13_data.bin",
			"byteLength":1401948,
			"name":"main_buffer"
		}
	],
	"bufferViews":[
		{
			"buffer":0,
			"byteLength":155772,
			"target":34963
		},
		{
			"buffer":0,
			"byteOffset":155772,
			"byteLength":467316,
			"target":34962
		},
		{
			"buffer":0,
			"byteOffset":623088,
			"byteLength":311544,
			"target":34962
		},
		{
			"buffer":0,
			"byteOffset":934632,
			"byteLength":467316,
			"target":34962
		}
	],
	"nodes":[
		{
			"name":"geo1",
			"mesh":0
		}
	],
	"meshes":[
		{
			"primitives":[
				{
					"attributes":{
						"NORMAL":3,
						"TEXCOORD_0":2,
						"POSITION":1
					},
					"indices":0
				}
			],
			"name":"reverse12"
		}
	],
	"scenes":[
		{
			"nodes":[0
			]
		}
	],
	"scene":0
}
