{
	"asset":{
		"version":"2.0",
		"generator":"Houdini GLTF 2.0 Exporter"
	},
	"accessors":[
		{
			"bufferView":0,
			"componentType":5123,
			"count":15270,
			"type":"SCALAR",
			"min":[0
			],
			"max":[15269
			]
		},
		{
			"bufferView":1,
			"componentType":5126,
			"count":15270,
			"type":"VEC3",
			"min":[0.630000055,-7.22200012,-64.7190018
			],
			"max":[10.7120008,-2.82800007,-0.482000023
			]
		},
		{
			"bufferView":2,
			"componentType":5126,
			"count":15270,
			"type":"VEC2",
			"min":[0,-1022
			],
			"max":[1023,1
			]
		},
		{
			"bufferView":3,
			"componentType":5126,
			"count":15270,
			"type":"VEC3",
			"min":[-0.999968052,-1,-0.999519825
			],
			"max":[0.999840021,1,0.999935985
			]
		}
	],
	"buffers":[
		{
			"uri":"14_data.bin",
			"byteLength":519180,
			"name":"main_buffer"
		}
	],
	"bufferViews":[
		{
			"buffer":0,
			"byteLength":30540,
			"target":34963
		},
		{
			"buffer":0,
			"byteOffset":30540,
			"byteLength":183240,
			"target":34962
		},
		{
			"buffer":0,
			"byteOffset":213780,
			"byteLength":122160,
			"target":34962
		},
		{
			"buffer":0,
			"byteOffset":335940,
			"byteLength":183240,
			"target":34962
		}
	],
	"nodes":[
		{
			"name":"geo1",
			"mesh":0
		}
	],
	"meshes":[
		{
			"primitives":[
				{
					"attributes":{
						"NORMAL":3,
						"TEXCOORD_0":2,
						"POSITION":1
					},
					"indices":0
				}
			],
			"name":"reverse13"
		}
	],
	"scenes":[
		{
			"nodes":[0
			]
		}
	],
	"scene":0
}
