{
	"asset":{
		"version":"2.0",
		"generator":"Houdini GLTF 2.0 Exporter"
	},
	"accessors":[
		{
			"bufferView":0,
			"componentType":5123,
			"count":32625,
			"type":"SCALAR",
			"min":[0
			],
			"max":[32624
			]
		},
		{
			"bufferView":1,
			"componentType":5126,
			"count":32625,
			"type":"VEC3",
			"min":[1.85400009,-7.20000029,-65.1410065
			],
			"max":[10.375001,-1.89700007,-0.109000005
			]
		},
		{
			"bufferView":2,
			"componentType":5126,
			"count":32625,
			"type":"VEC2",
			"min":[0,-1022
			],
			"max":[1023,1
			]
		},
		{
			"bufferView":3,
			"componentType":5126,
			"count":32625,
			"type":"VEC3",
			"min":[-1,-0.999968052,-0.999968052
			],
			"max":[0.999968052,1,0.999968052
			]
		}
	],
	"buffers":[
		{
			"uri":"15_data.bin",
			"byteLength":1109252,
			"name":"main_buffer"
		}
	],
	"bufferViews":[
		{
			"buffer":0,
			"byteLength":65250,
			"target":34963
		},
		{
			"buffer":0,
			"byteOffset":65252,
			"byteLength":391500,
			"target":34962
		},
		{
			"buffer":0,
			"byteOffset":456752,
			"byteLength":261000,
			"target":34962
		},
		{
			"buffer":0,
			"byteOffset":717752,
			"byteLength":391500,
			"target":34962
		}
	],
	"nodes":[
		{
			"name":"geo1",
			"mesh":0
		}
	],
	"meshes":[
		{
			"primitives":[
				{
					"attributes":{
						"NORMAL":3,
						"TEXCOORD_0":2,
						"POSITION":1
					},
					"indices":0
				}
			],
			"name":"reverse14"
		}
	],
	"scenes":[
		{
			"nodes":[0
			]
		}
	],
	"scene":0
}
