{
	"asset":{
		"version":"2.0",
		"generator":"Houdini GLTF 2.0 Exporter"
	},
	"accessors":[
		{
			"bufferView":0,
			"componentType":5125,
			"count":44310,
			"type":"SCALAR",
			"min":[0
			],
			"max":[44309
			]
		},
		{
			"bufferView":1,
			"componentType":5126,
			"count":44310,
			"type":"VEC3",
			"min":[1.93200004,-7.19800043,-63.6510048
			],
			"max":[10.4430008,-3.5940001,-1.27400005
			]
		},
		{
			"bufferView":2,
			"componentType":5126,
			"count":44310,
			"type":"VEC2",
			"min":[0,-1022
			],
			"max":[1023,1
			]
		},
		{
			"bufferView":3,
			"componentType":5126,
			"count":44310,
			"type":"VEC3",
			"min":[-0.999968052,-0.999968052,-0.999872088
			],
			"max":[0.999968052,0.999680161,0.999872088
			]
		}
	],
	"buffers":[
		{
			"uri":"16_data.bin",
			"byteLength":1595160,
			"name":"main_buffer"
		}
	],
	"bufferViews":[
		{
			"buffer":0,
			"byteLength":177240,
			"target":34963
		},
		{
			"buffer":0,
			"byteOffset":177240,
			"byteLength":531720,
			"target":34962
		},
		{
			"buffer":0,
			"byteOffset":708960,
			"byteLength":354480,
			"target":34962
		},
		{
			"buffer":0,
			"byteOffset":1063440,
			"byteLength":531720,
			"target":34962
		}
	],
	"nodes":[
		{
			"name":"geo1",
			"mesh":0
		}
	],
	"meshes":[
		{
			"primitives":[
				{
					"attributes":{
						"NORMAL":3,
						"TEXCOORD_0":2,
						"POSITION":1
					},
					"indices":0
				}
			],
			"name":"reverse15"
		}
	],
	"scenes":[
		{
			"nodes":[0
			]
		}
	],
	"scene":0
}
