{
	"asset":{
		"version":"2.0",
		"generator":"Houdini GLTF 2.0 Exporter"
	},
	"accessors":[
		{
			"bufferView":0,
			"componentType":5125,
			"count":41631,
			"type":"SCALAR",
			"min":[0
			],
			"max":[41630
			]
		},
		{
			"bufferView":1,
			"componentType":5126,
			"count":41631,
			"type":"VEC3",
			"min":[2.25,-7.18600035,-64.9840012
			],
			"max":[9.98600006,-1.94500005,-1.1400001
			]
		},
		{
			"bufferView":2,
			"componentType":5126,
			"count":41631,
			"type":"VEC2",
			"min":[0,-1022
			],
			"max":[1023,1
			]
		},
		{
			"bufferView":3,
			"componentType":5126,
			"count":41631,
			"type":"VEC3",
			"min":[-1,-0.999968052,-0.999968052
			],
			"max":[0.999744117,1,0.999935985
			]
		}
	],
	"buffers":[
		{
			"uri":"17_data.bin",
			"byteLength":1498716,
			"name":"main_buffer"
		}
	],
	"bufferViews":[
		{
			"buffer":0,
			"byteLength":166524,
			"target":34963
		},
		{
			"buffer":0,
			"byteOffset":166524,
			"byteLength":499572,
			"target":34962
		},
		{
			"buffer":0,
			"byteOffset":666096,
			"byteLength":333048,
			"target":34962
		},
		{
			"buffer":0,
			"byteOffset":999144,
			"byteLength":499572,
			"target":34962
		}
	],
	"nodes":[
		{
			"name":"geo1",
			"mesh":0
		}
	],
	"meshes":[
		{
			"primitives":[
				{
					"attributes":{
						"NORMAL":3,
						"TEXCOORD_0":2,
						"POSITION":1
					},
					"indices":0
				}
			],
			"name":"reverse16"
		}
	],
	"scenes":[
		{
			"nodes":[0
			]
		}
	],
	"scene":0
}
