{
	"asset":{
		"version":"2.0",
		"generator":"Houdini GLTF 2.0 Exporter"
	},
	"accessors":[
		{
			"bufferView":0,
			"componentType":5123,
			"count":11469,
			"type":"SCALAR",
			"min":[0
			],
			"max":[11468
			]
		},
		{
			"bufferView":1,
			"componentType":5126,
			"count":11469,
			"type":"VEC3",
			"min":[0.52700001,-7.24200058,-64.5020065
			],
			"max":[10.6950006,-2.67800021,-1.60900009
			]
		},
		{
			"bufferView":2,
			"componentType":5126,
			"count":11469,
			"type":"VEC2",
			"min":[0,-1022
			],
			"max":[1023,1
			]
		},
		{
			"bufferView":3,
			"componentType":5126,
			"count":11469,
			"type":"VEC3",
			"min":[-0.999968052,-0.999935985,-0.999935985
			],
			"max":[0.999872088,1,0.999968052
			]
		}
	],
	"buffers":[
		{
			"uri":"18_data.bin",
			"byteLength":389948,
			"name":"main_buffer"
		}
	],
	"bufferViews":[
		{
			"buffer":0,
			"byteLength":22938,
			"target":34963
		},
		{
			"buffer":0,
			"byteOffset":22940,
			"byteLength":137628,
			"target":34962
		},
		{
			"buffer":0,
			"byteOffset":160568,
			"byteLength":91752,
			"target":34962
		},
		{
			"buffer":0,
			"byteOffset":252320,
			"byteLength":137628,
			"target":34962
		}
	],
	"nodes":[
		{
			"name":"geo1",
			"mesh":0
		}
	],
	"meshes":[
		{
			"primitives":[
				{
					"attributes":{
						"NORMAL":3,
						"TEXCOORD_0":2,
						"POSITION":1
					},
					"indices":0
				}
			],
			"name":"reverse17"
		}
	],
	"scenes":[
		{
			"nodes":[0
			]
		}
	],
	"scene":0
}
