{
	"asset":{
		"version":"2.0",
		"generator":"Houdini GLTF 2.0 Exporter"
	},
	"accessors":[
		{
			"bufferView":0,
			"componentType":5125,
			"count":44262,
			"type":"SCALAR",
			"min":[0
			],
			"max":[44261
			]
		},
		{
			"bufferView":1,
			"componentType":5126,
			"count":44262,
			"type":"VEC3",
			"min":[2.31600022,-7.25400019,-62.6440048
			],
			"max":[10.4860001,-3.28700018,-1.31500006
			]
		},
		{
			"bufferView":2,
			"componentType":5126,
			"count":44262,
			"type":"VEC2",
			"min":[0,-1022
			],
			"max":[1023,1
			]
		},
		{
			"bufferView":3,
			"componentType":5126,
			"count":44262,
			"type":"VEC3",
			"min":[-0.999968052,-0.999840021,-0.999935985
			],
			"max":[0.999968052,1,0.999935985
			]
		}
	],
	"buffers":[
		{
			"uri":"19_data.bin",
			"byteLength":1593432,
			"name":"main_buffer"
		}
	],
	"bufferViews":[
		{
			"buffer":0,
			"byteLength":177048,
			"target":34963
		},
		{
			"buffer":0,
			"byteOffset":177048,
			"byteLength":531144,
			"target":34962
		},
		{
			"buffer":0,
			"byteOffset":708192,
			"byteLength":354096,
			"target":34962
		},
		{
			"buffer":0,
			"byteOffset":1062288,
			"byteLength":531144,
			"target":34962
		}
	],
	"nodes":[
		{
			"name":"geo1",
			"mesh":0
		}
	],
	"meshes":[
		{
			"primitives":[
				{
					"attributes":{
						"NORMAL":3,
						"TEXCOORD_0":2,
						"POSITION":1
					},
					"indices":0
				}
			],
			"name":"reverse18"
		}
	],
	"scenes":[
		{
			"nodes":[0
			]
		}
	],
	"scene":0
}
