{
	"asset":{
		"version":"2.0",
		"generator":"Houdini GLTF 2.0 Exporter"
	},
	"accessors":[
		{
			"bufferView":0,
			"componentType":5123,
			"count":13542,
			"type":"SCALAR",
			"min":[0
			],
			"max":[13541
			]
		},
		{
			"bufferView":1,
			"componentType":5126,
			"count":13542,
			"type":"VEC3",
			"min":[0.594000041,-7.25000048,-64.7120056
			],
			"max":[10.6760006,-1.51700008,-0.966000021
			]
		},
		{
			"bufferView":2,
			"componentType":5126,
			"count":13542,
			"type":"VEC2",
			"min":[0,-1022
			],
			"max":[1023,1
			]
		},
		{
			"bufferView":3,
			"componentType":5126,
			"count":13542,
			"type":"VEC3",
			"min":[-0.999968052,-0.999872088,-0.999392033
			],
			"max":[0.99971205,1,0.999872088
			]
		}
	],
	"buffers":[
		{
			"uri":"20_data.bin",
			"byteLength":460428,
			"name":"main_buffer"
		}
	],
	"bufferViews":[
		{
			"buffer":0,
			"byteLength":27084,
			"target":34963
		},
		{
			"buffer":0,
			"byteOffset":27084,
			"byteLength":162504,
			"target":34962
		},
		{
			"buffer":0,
			"byteOffset":189588,
			"byteLength":108336,
			"target":34962
		},
		{
			"buffer":0,
			"byteOffset":297924,
			"byteLength":162504,
			"target":34962
		}
	],
	"nodes":[
		{
			"name":"geo1",
			"mesh":0
		}
	],
	"meshes":[
		{
			"primitives":[
				{
					"attributes":{
						"NORMAL":3,
						"TEXCOORD_0":2,
						"POSITION":1
					},
					"indices":0
				}
			],
			"name":"reverse19"
		}
	],
	"scenes":[
		{
			"nodes":[0
			]
		}
	],
	"scene":0
}
