{
	"asset":{
		"version":"2.0",
		"generator":"Houdini GLTF 2.0 Exporter"
	},
	"accessors":[
		{
			"bufferView":0,
			"componentType":5125,
			"count":40506,
			"type":"SCALAR",
			"min":[0
			],
			"max":[40505
			]
		},
		{
			"bufferView":1,
			"componentType":5126,
			"count":40506,
			"type":"VEC3",
			"min":[0.826000035,-7.23400021,-65.1580048
			],
			"max":[10.0890007,-2.70300007,-0.125
			]
		},
		{
			"bufferView":2,
			"componentType":5126,
			"count":40506,
			"type":"VEC2",
			"min":[0,-1022
			],
			"max":[1023,1
			]
		},
		{
			"bufferView":3,
			"componentType":5126,
			"count":40506,
			"type":"VEC3",
			"min":[-0.999968052,-0.999935985,-0.999935985
			],
			"max":[0.999872088,1,0.999968052
			]
		}
	],
	"buffers":[
		{
			"uri":"21_data.bin",
			"byteLength":1458216,
			"name":"main_buffer"
		}
	],
	"bufferViews":[
		{
			"buffer":0,
			"byteLength":162024,
			"target":34963
		},
		{
			"buffer":0,
			"byteOffset":162024,
			"byteLength":486072,
			"target":34962
		},
		{
			"buffer":0,
			"byteOffset":648096,
			"byteLength":324048,
			"target":34962
		},
		{
			"buffer":0,
			"byteOffset":972144,
			"byteLength":486072,
			"target":34962
		}
	],
	"nodes":[
		{
			"name":"geo1",
			"mesh":0
		}
	],
	"meshes":[
		{
			"primitives":[
				{
					"attributes":{
						"NORMAL":3,
						"TEXCOORD_0":2,
						"POSITION":1
					},
					"indices":0
				}
			],
			"name":"reverse20"
		}
	],
	"scenes":[
		{
			"nodes":[0
			]
		}
	],
	"scene":0
}
