{
	"asset":{
		"version":"2.0",
		"generator":"Houdini GLTF 2.0 Exporter"
	},
	"accessors":[
		{
			"bufferView":0,
			"componentType":5123,
			"count":16866,
			"type":"SCALAR",
			"min":[0
			],
			"max":[16865
			]
		},
		{
			"bufferView":1,
			"componentType":5126,
			"count":16866,
			"type":"VEC3",
			"min":[0.609000027,-7.21000051,-62.8860016
			],
			"max":[10.7020006,-2.66200018,-0.301000029
			]
		},
		{
			"bufferView":2,
			"componentType":5126,
			"count":16866,
			"type":"VEC2",
			"min":[0,-1022
			],
			"max":[1023,1
			]
		},
		{
			"bufferView":3,
			"componentType":5126,
			"count":16866,
			"type":"VEC3",
			"min":[-0.999968052,-0.999584258,-0.999968052
			],
			"max":[0.999744117,1,0.999968052
			]
		}
	],
	"buffers":[
		{
			"uri":"22_data.bin",
			"byteLength":573444,
			"name":"main_buffer"
		}
	],
	"bufferViews":[
		{
			"buffer":0,
			"byteLength":33732,
			"target":34963
		},
		{
			"buffer":0,
			"byteOffset":33732,
			"byteLength":202392,
			"target":34962
		},
		{
			"buffer":0,
			"byteOffset":236124,
			"byteLength":134928,
			"target":34962
		},
		{
			"buffer":0,
			"byteOffset":371052,
			"byteLength":202392,
			"target":34962
		}
	],
	"nodes":[
		{
			"name":"geo1",
			"mesh":0
		}
	],
	"meshes":[
		{
			"primitives":[
				{
					"attributes":{
						"NORMAL":3,
						"TEXCOORD_0":2,
						"POSITION":1
					},
					"indices":0
				}
			],
			"name":"reverse21"
		}
	],
	"scenes":[
		{
			"nodes":[0
			]
		}
	],
	"scene":0
}
