{
	"asset":{
		"version":"2.0",
		"generator":"Houdini GLTF 2.0 Exporter"
	},
	"accessors":[
		{
			"bufferView":0,
			"componentType":5125,
			"count":35376,
			"type":"SCALAR",
			"min":[0
			],
			"max":[35375
			]
		},
		{
			"bufferView":1,
			"componentType":5126,
			"count":35376,
			"type":"VEC3",
			"min":[1.52600002,-7.21000051,-65.0770035
			],
			"max":[10.4860001,-3.28300023,-0.423000008
			]
		},
		{
			"bufferView":2,
			"componentType":5126,
			"count":35376,
			"type":"VEC2",
			"min":[0,-1022
			],
			"max":[1023,1
			]
		},
		{
			"bufferView":3,
			"componentType":5126,
			"count":35376,
			"type":"VEC3",
			"min":[-0.999968052,-0.999968052,-0.999968052
			],
			"max":[1,1,0.999968052
			]
		}
	],
	"buffers":[
		{
			"uri":"23_data.bin",
			"byteLength":1273536,
			"name":"main_buffer"
		}
	],
	"bufferViews":[
		{
			"buffer":0,
			"byteLength":141504,
			"target":34963
		},
		{
			"buffer":0,
			"byteOffset":141504,
			"byteLength":424512,
			"target":34962
		},
		{
			"buffer":0,
			"byteOffset":566016,
			"byteLength":283008,
			"target":34962
		},
		{
			"buffer":0,
			"byteOffset":849024,
			"byteLength":424512,
			"target":34962
		}
	],
	"nodes":[
		{
			"name":"geo1",
			"mesh":0
		}
	],
	"meshes":[
		{
			"primitives":[
				{
					"attributes":{
						"NORMAL":3,
						"TEXCOORD_0":2,
						"POSITION":1
					},
					"indices":0
				}
			],
			"name":"reverse22"
		}
	],
	"scenes":[
		{
			"nodes":[0
			]
		}
	],
	"scene":0
}
