{
	"asset":{
		"version":"2.0",
		"generator":"Houdini GLTF 2.0 Exporter"
	},
	"accessors":[
		{
			"bufferView":0,
			"componentType":5123,
			"count":16071,
			"type":"SCALAR",
			"min":[0
			],
			"max":[16070
			]
		},
		{
			"bufferView":1,
			"componentType":5126,
			"count":16071,
			"type":"VEC3",
			"min":[0.566000044,-7.22800016,-65.1500015
			],
			"max":[10.3900003,-1.52200007,-1.41000009
			]
		},
		{
			"bufferView":2,
			"componentType":5126,
			"count":16071,
			"type":"VEC2",
			"min":[0,-1022
			],
			"max":[1023,1
			]
		},
		{
			"bufferView":3,
			"componentType":5126,
			"count":16071,
			"type":"VEC3",
			"min":[-1,-1,-1
			],
			"max":[0.999872088,1,0.999968052
			]
		}
	],
	"buffers":[
		{
			"uri":"24_data.bin",
			"byteLength":546416,
			"name":"main_buffer"
		}
	],
	"bufferViews":[
		{
			"buffer":0,
			"byteLength":32142,
			"target":34963
		},
		{
			"buffer":0,
			"byteOffset":32144,
			"byteLength":192852,
			"target":34962
		},
		{
			"buffer":0,
			"byteOffset":224996,
			"byteLength":128568,
			"target":34962
		},
		{
			"buffer":0,
			"byteOffset":353564,
			"byteLength":192852,
			"target":34962
		}
	],
	"nodes":[
		{
			"name":"geo1",
			"mesh":0
		}
	],
	"meshes":[
		{
			"primitives":[
				{
					"attributes":{
						"NORMAL":3,
						"TEXCOORD_0":2,
						"POSITION":1
					},
					"indices":0
				}
			],
			"name":"reverse23"
		}
	],
	"scenes":[
		{
			"nodes":[0
			]
		}
	],
	"scene":0
}
