{
	"asset":{
		"version":"2.0",
		"generator":"Houdini GLTF 2.0 Exporter"
	},
	"accessors":[
		{
			"bufferView":0,
			"componentType":5125,
			"count":39504,
			"type":"SCALAR",
			"min":[0
			],
			"max":[39503
			]
		},
		{
			"bufferView":1,
			"componentType":5126,
			"count":39504,
			"type":"VEC3",
			"min":[0.654000044,-7.18900013,-65.1380005
			],
			"max":[10.7440004,-1.95300007,-1.26200008
			]
		},
		{
			"bufferView":2,
			"componentType":5126,
			"count":39504,
			"type":"VEC2",
			"min":[0,-1022
			],
			"max":[1023,1
			]
		},
		{
			"bufferView":3,
			"componentType":5126,
			"count":39504,
			"type":"VEC3",
			"min":[-0.999968052,-0.999968052,-0.999968052
			],
			"max":[0.999872088,1,0.999935985
			]
		}
	],
	"buffers":[
		{
			"uri":"25_data.bin",
			"byteLength":1422144,
			"name":"main_buffer"
		}
	],
	"bufferViews":[
		{
			"buffer":0,
			"byteLength":158016,
			"target":34963
		},
		{
			"buffer":0,
			"byteOffset":158016,
			"byteLength":474048,
			"target":34962
		},
		{
			"buffer":0,
			"byteOffset":632064,
			"byteLength":316032,
			"target":34962
		},
		{
			"buffer":0,
			"byteOffset":948096,
			"byteLength":474048,
			"target":34962
		}
	],
	"nodes":[
		{
			"name":"geo1",
			"mesh":0
		}
	],
	"meshes":[
		{
			"primitives":[
				{
					"attributes":{
						"NORMAL":3,
						"TEXCOORD_0":2,
						"POSITION":1
					},
					"indices":0
				}
			],
			"name":"reverse24"
		}
	],
	"scenes":[
		{
			"nodes":[0
			]
		}
	],
	"scene":0
}
