{
	"asset":{
		"version":"2.0",
		"generator":"Houdini GLTF 2.0 Exporter"
	},
	"accessors":[
		{
			"bufferView":0,
			"componentType":5125,
			"count":44331,
			"type":"SCALAR",
			"min":[0
			],
			"max":[44330
			]
		},
		{
			"bufferView":1,
			"componentType":5126,
			"count":44331,
			"type":"VEC3",
			"min":[0,-7.25800037,-64.7260056
			],
			"max":[10.0110006,-2.65300012,-1.20800006
			]
		},
		{
			"bufferView":2,
			"componentType":5126,
			"count":44331,
			"type":"VEC2",
			"min":[0,-1022
			],
			"max":[1023,1
			]
		},
		{
			"bufferView":3,
			"componentType":5126,
			"count":44331,
			"type":"VEC3",
			"min":[-0.999935985,-0.999968052,-0.999744117
			],
			"max":[0.999968052,0.99971205,0.999935985
			]
		}
	],
	"buffers":[
		{
			"uri":"26_data.bin",
			"byteLength":1595916,
			"name":"main_buffer"
		}
	],
	"bufferViews":[
		{
			"buffer":0,
			"byteLength":177324,
			"target":34963
		},
		{
			"buffer":0,
			"byteOffset":177324,
			"byteLength":531972,
			"target":34962
		},
		{
			"buffer":0,
			"byteOffset":709296,
			"byteLength":354648,
			"target":34962
		},
		{
			"buffer":0,
			"byteOffset":1063944,
			"byteLength":531972,
			"target":34962
		}
	],
	"nodes":[
		{
			"name":"geo1",
			"mesh":0
		}
	],
	"meshes":[
		{
			"primitives":[
				{
					"attributes":{
						"NORMAL":3,
						"TEXCOORD_0":2,
						"POSITION":1
					},
					"indices":0
				}
			],
			"name":"reverse25"
		}
	],
	"scenes":[
		{
			"nodes":[0
			]
		}
	],
	"scene":0
}
