{
	"asset":{
		"version":"2.0",
		"generator":"Houdini GLTF 2.0 Exporter"
	},
	"accessors":[
		{
			"bufferView":0,
			"componentType":5123,
			"count":18711,
			"type":"SCALAR",
			"min":[0
			],
			"max":[18710
			]
		},
		{
			"bufferView":1,
			"componentType":5126,
			"count":18711,
			"type":"VEC3",
			"min":[1.42600012,-7.24400043,-65.1060028
			],
			"max":[10.1170006,-1.88200009,-1.1400001
			]
		},
		{
			"bufferView":2,
			"componentType":5126,
			"count":18711,
			"type":"VEC2",
			"min":[0,-1022
			],
			"max":[1023,1
			]
		},
		{
			"bufferView":3,
			"componentType":5126,
			"count":18711,
			"type":"VEC3",
			"min":[-1,-0.999935985,-1
			],
			"max":[0.999968052,1,1
			]
		}
	],
	"buffers":[
		{
			"uri":"27_data.bin",
			"byteLength":636176,
			"name":"main_buffer"
		}
	],
	"bufferViews":[
		{
			"buffer":0,
			"byteLength":37422,
			"target":34963
		},
		{
			"buffer":0,
			"byteOffset":37424,
			"byteLength":224532,
			"target":34962
		},
		{
			"buffer":0,
			"byteOffset":261956,
			"byteLength":149688,
			"target":34962
		},
		{
			"buffer":0,
			"byteOffset":411644,
			"byteLength":224532,
			"target":34962
		}
	],
	"nodes":[
		{
			"name":"geo1",
			"mesh":0
		}
	],
	"meshes":[
		{
			"primitives":[
				{
					"attributes":{
						"NORMAL":3,
						"TEXCOORD_0":2,
						"POSITION":1
					},
					"indices":0
				}
			],
			"name":"reverse26"
		}
	],
	"scenes":[
		{
			"nodes":[0
			]
		}
	],
	"scene":0
}
