{
	"asset":{
		"version":"2.0",
		"generator":"Houdini GLTF 2.0 Exporter"
	},
	"accessors":[
		{
			"bufferView":0,
			"componentType":5123,
			"count":10959,
			"type":"SCALAR",
			"min":[0
			],
			"max":[10958
			]
		},
		{
			"bufferView":1,
			"componentType":5126,
			"count":10959,
			"type":"VEC3",
			"min":[0.61500001,-7.21100044,-64.7590027
			],
			"max":[10.6630001,-3.31900024,-1.10699999
			]
		},
		{
			"bufferView":2,
			"componentType":5126,
			"count":10959,
			"type":"VEC2",
			"min":[0,-1022
			],
			"max":[1023,1
			]
		},
		{
			"bufferView":3,
			"componentType":5126,
			"count":10959,
			"type":"VEC3",
			"min":[-1,-0.999840021,-0.999935985
			],
			"max":[1,1,0.999935985
			]
		}
	],
	"buffers":[
		{
			"uri":"28_data.bin",
			"byteLength":372608,
			"name":"main_buffer"
		}
	],
	"bufferViews":[
		{
			"buffer":0,
			"byteLength":21918,
			"target":34963
		},
		{
			"buffer":0,
			"byteOffset":21920,
			"byteLength":131508,
			"target":34962
		},
		{
			"buffer":0,
			"byteOffset":153428,
			"byteLength":87672,
			"target":34962
		},
		{
			"buffer":0,
			"byteOffset":241100,
			"byteLength":131508,
			"target":34962
		}
	],
	"nodes":[
		{
			"name":"geo1",
			"mesh":0
		}
	],
	"meshes":[
		{
			"primitives":[
				{
					"attributes":{
						"NORMAL":3,
						"TEXCOORD_0":2,
						"POSITION":1
					},
					"indices":0
				}
			],
			"name":"reverse27"
		}
	],
	"scenes":[
		{
			"nodes":[0
			]
		}
	],
	"scene":0
}
