{
	"asset":{
		"version":"2.0",
		"generator":"Houdini GLTF 2.0 Exporter"
	},
	"accessors":[
		{
			"bufferView":0,
			"componentType":5123,
			"count":11916,
			"type":"SCALAR",
			"min":[0
			],
			"max":[11915
			]
		},
		{
			"bufferView":1,
			"componentType":5126,
			"count":11916,
			"type":"VEC3",
			"min":[0.5,-7.21000051,-65.2950058
			],
			"max":[10.6820002,-2.63400006,-1.1220001
			]
		},
		{
			"bufferView":2,
			"componentType":5126,
			"count":11916,
			"type":"VEC2",
			"min":[0,-1022
			],
			"max":[1023,1
			]
		},
		{
			"bufferView":3,
			"componentType":5126,
			"count":11916,
			"type":"VEC3",
			"min":[-0.999968052,-0.999584258,-0.999840021
			],
			"max":[0.999872088,1,0.999935985
			]
		}
	],
	"buffers":[
		{
			"uri":"29_data.bin",
			"byteLength":405144,
			"name":"main_buffer"
		}
	],
	"bufferViews":[
		{
			"buffer":0,
			"byteLength":23832,
			"target":34963
		},
		{
			"buffer":0,
			"byteOffset":23832,
			"byteLength":142992,
			"target":34962
		},
		{
			"buffer":0,
			"byteOffset":166824,
			"byteLength":95328,
			"target":34962
		},
		{
			"buffer":0,
			"byteOffset":262152,
			"byteLength":142992,
			"target":34962
		}
	],
	"nodes":[
		{
			"name":"geo1",
			"mesh":0
		}
	],
	"meshes":[
		{
			"primitives":[
				{
					"attributes":{
						"NORMAL":3,
						"TEXCOORD_0":2,
						"POSITION":1
					},
					"indices":0
				}
			],
			"name":"reverse28"
		}
	],
	"scenes":[
		{
			"nodes":[0
			]
		}
	],
	"scene":0
}
