{
	"asset":{
		"version":"2.0",
		"generator":"Houdini GLTF 2.0 Exporter"
	},
	"accessors":[
		{
			"bufferView":0,
			"componentType":5123,
			"count":16515,
			"type":"SCALAR",
			"min":[0
			],
			"max":[16514
			]
		},
		{
			"bufferView":1,
			"componentType":5126,
			"count":16515,
			"type":"VEC3",
			"min":[0.115000002,-7.27500057,-65.5350037
			],
			"max":[10.1600008,-2.20600009,-1.49000013
			]
		},
		{
			"bufferView":2,
			"componentType":5126,
			"count":16515,
			"type":"VEC2",
			"min":[0,-1022
			],
			"max":[1023,1
			]
		},
		{
			"bufferView":3,
			"componentType":5126,
			"count":16515,
			"type":"VEC3",
			"min":[-1,-0.999968052,-1
			],
			"max":[0.99971205,1,0.999968052
			]
		}
	],
	"buffers":[
		{
			"uri":"30_data.bin",
			"byteLength":561512,
			"name":"main_buffer"
		}
	],
	"bufferViews":[
		{
			"buffer":0,
			"byteLength":33030,
			"target":34963
		},
		{
			"buffer":0,
			"byteOffset":33032,
			"byteLength":198180,
			"target":34962
		},
		{
			"buffer":0,
			"byteOffset":231212,
			"byteLength":132120,
			"target":34962
		},
		{
			"buffer":0,
			"byteOffset":363332,
			"byteLength":198180,
			"target":34962
		}
	],
	"nodes":[
		{
			"name":"geo1",
			"mesh":0
		}
	],
	"meshes":[
		{
			"primitives":[
				{
					"attributes":{
						"NORMAL":3,
						"TEXCOORD_0":2,
						"POSITION":1
					},
					"indices":0
				}
			],
			"name":"reverse29"
		}
	],
	"scenes":[
		{
			"nodes":[0
			]
		}
	],
	"scene":0
}
