{
	"asset":{
		"version":"2.0",
		"generator":"Houdini GLTF 2.0 Exporter"
	},
	"accessors":[
		{
			"bufferView":0,
			"componentType":5123,
			"count":15378,
			"type":"SCALAR",
			"min":[0
			],
			"max":[15377
			]
		},
		{
			"bufferView":1,
			"componentType":5126,
			"count":15378,
			"type":"VEC3",
			"min":[0.585000038,-7.17900038,-64.7140045
			],
			"max":[10.6890001,-1.90500009,-1.82000005
			]
		},
		{
			"bufferView":2,
			"componentType":5126,
			"count":15378,
			"type":"VEC2",
			"min":[0,-1022
			],
			"max":[1023,1
			]
		},
		{
			"bufferView":3,
			"componentType":5126,
			"count":15378,
			"type":"VEC3",
			"min":[-0.999968052,-0.999840021,-0.999968052
			],
			"max":[0.999840021,1,0.999968052
			]
		}
	],
	"buffers":[
		{
			"uri":"31_data.bin",
			"byteLength":522852,
			"name":"main_buffer"
		}
	],
	"bufferViews":[
		{
			"buffer":0,
			"byteLength":30756,
			"target":34963
		},
		{
			"buffer":0,
			"byteOffset":30756,
			"byteLength":184536,
			"target":34962
		},
		{
			"buffer":0,
			"byteOffset":215292,
			"byteLength":123024,
			"target":34962
		},
		{
			"buffer":0,
			"byteOffset":338316,
			"byteLength":184536,
			"target":34962
		}
	],
	"nodes":[
		{
			"name":"geo1",
			"mesh":0
		}
	],
	"meshes":[
		{
			"primitives":[
				{
					"attributes":{
						"NORMAL":3,
						"TEXCOORD_0":2,
						"POSITION":1
					},
					"indices":0
				}
			],
			"name":"reverse30"
		}
	],
	"scenes":[
		{
			"nodes":[0
			]
		}
	],
	"scene":0
}
