{
	"asset":{
		"version":"2.0",
		"generator":"Houdini GLTF 2.0 Exporter"
	},
	"accessors":[
		{
			"bufferView":0,
			"componentType":5123,
			"count":14013,
			"type":"SCALAR",
			"min":[0
			],
			"max":[14012
			]
		},
		{
			"bufferView":1,
			"componentType":5126,
			"count":14013,
			"type":"VEC3",
			"min":[1.98100007,-7.17100048,-64.4940033
			],
			"max":[10.6740007,-3.52400017,-1.33400011
			]
		},
		{
			"bufferView":2,
			"componentType":5126,
			"count":14013,
			"type":"VEC2",
			"min":[0,-1022
			],
			"max":[1023,1
			]
		},
		{
			"bufferView":3,
			"componentType":5126,
			"count":14013,
			"type":"VEC3",
			"min":[-0.999968052,-1,-1
			],
			"max":[1,1,1
			]
		}
	],
	"buffers":[
		{
			"uri":"32_data.bin",
			"byteLength":476444,
			"name":"main_buffer"
		}
	],
	"bufferViews":[
		{
			"buffer":0,
			"byteLength":28026,
			"target":34963
		},
		{
			"buffer":0,
			"byteOffset":28028,
			"byteLength":168156,
			"target":34962
		},
		{
			"buffer":0,
			"byteOffset":196184,
			"byteLength":112104,
			"target":34962
		},
		{
			"buffer":0,
			"byteOffset":308288,
			"byteLength":168156,
			"target":34962
		}
	],
	"nodes":[
		{
			"name":"geo1",
			"mesh":0
		}
	],
	"meshes":[
		{
			"primitives":[
				{
					"attributes":{
						"NORMAL":3,
						"TEXCOORD_0":2,
						"POSITION":1
					},
					"indices":0
				}
			],
			"name":"reverse31"
		}
	],
	"scenes":[
		{
			"nodes":[0
			]
		}
	],
	"scene":0
}
