{
	"asset":{
		"version":"2.0",
		"generator":"Houdini GLTF 2.0 Exporter"
	},
	"accessors":[
		{
			"bufferView":0,
			"componentType":5123,
			"count":12111,
			"type":"SCALAR",
			"min":[0
			],
			"max":[12110
			]
		},
		{
			"bufferView":1,
			"componentType":5126,
			"count":12111,
			"type":"VEC3",
			"min":[0.478000015,-7.30800056,-65.5350037
			],
			"max":[10.7440004,-1.93900013,-1.33400011
			]
		},
		{
			"bufferView":2,
			"componentType":5126,
			"count":12111,
			"type":"VEC2",
			"min":[0,-1022
			],
			"max":[1023,1
			]
		},
		{
			"bufferView":3,
			"componentType":5126,
			"count":12111,
			"type":"VEC3",
			"min":[-1,-0.999872088,-1
			],
			"max":[0.999968052,1,0.999968052
			]
		}
	],
	"buffers":[
		{
			"uri":"33_data.bin",
			"byteLength":411776,
			"name":"main_buffer"
		}
	],
	"bufferViews":[
		{
			"buffer":0,
			"byteLength":24222,
			"target":34963
		},
		{
			"buffer":0,
			"byteOffset":24224,
			"byteLength":145332,
			"target":34962
		},
		{
			"buffer":0,
			"byteOffset":169556,
			"byteLength":96888,
			"target":34962
		},
		{
			"buffer":0,
			"byteOffset":266444,
			"byteLength":145332,
			"target":34962
		}
	],
	"nodes":[
		{
			"name":"geo1",
			"mesh":0
		}
	],
	"meshes":[
		{
			"primitives":[
				{
					"attributes":{
						"NORMAL":3,
						"TEXCOORD_0":2,
						"POSITION":1
					},
					"indices":0
				}
			],
			"name":"reverse32"
		}
	],
	"scenes":[
		{
			"nodes":[0
			]
		}
	],
	"scene":0
}
