{
	"asset":{
		"version":"2.0",
		"generator":"Houdini GLTF 2.0 Exporter"
	},
	"accessors":[
		{
			"bufferView":0,
			"componentType":5125,
			"count":98142,
			"type":"SCALAR",
			"min":[0
			],
			"max":[98141
			]
		},
		{
			"bufferView":1,
			"componentType":5126,
			"count":98142,
			"type":"VEC3",
			"min":[2.82762003,-6.73596001,-62.4659195
			],
			"max":[7.97587967,-6.73596001,-26.2674217
			]
		},
		{
			"bufferView":2,
			"componentType":5126,
			"count":98142,
			"type":"VEC2",
			"min":[0,-217.112
			],
			"max":[1,1
			]
		}
	],
	"buffers":[
		{
			"uri":"35_data.bin",
			"byteLength":2355408,
			"name":"main_buffer"
		}
	],
	"bufferViews":[
		{
			"buffer":0,
			"byteLength":392568,
			"target":34963
		},
		{
			"buffer":0,
			"byteOffset":392568,
			"byteLength":1177704,
			"target":34962
		},
		{
			"buffer":0,
			"byteOffset":1570272,
			"byteLength":785136,
			"target":34962
		}
	],
	"nodes":[
		{
			"name":"geo1",
			"mesh":0
		}
	],
	"meshes":[
		{
			"primitives":[
				{
					"attributes":{
						"TEXCOORD_0":2,
						"POSITION":1
					},
					"indices":0
				}
			],
			"name":"transform36"
		}
	],
	"scenes":[
		{
			"nodes":[0
			]
		}
	],
	"scene":0
}
