{
	"asset":{
		"version":"2.0",
		"generator":"Houdini GLTF 2.0 Exporter"
	},
	"accessors":[
		{
			"bufferView":0,
			"componentType":5125,
			"count":88572,
			"type":"SCALAR",
			"min":[0
			],
			"max":[88571
			]
		},
		{
			"bufferView":1,
			"componentType":5126,
			"count":88572,
			"type":"VEC3",
			"min":[2.97250009,-6.63149977,-42.8237457
			],
			"max":[5.03524971,-6.63149977,-6.96449661
			]
		},
		{
			"bufferView":2,
			"componentType":5126,
			"count":88572,
			"type":"VEC2",
			"min":[0,-294.237
			],
			"max":[1,1
			]
		}
	],
	"buffers":[
		{
			"uri":"36_data.bin",
			"byteLength":2125728,
			"name":"main_buffer"
		}
	],
	"bufferViews":[
		{
			"buffer":0,
			"byteLength":354288,
			"target":34963
		},
		{
			"buffer":0,
			"byteOffset":354288,
			"byteLength":1062864,
			"target":34962
		},
		{
			"buffer":0,
			"byteOffset":1417152,
			"byteLength":708576,
			"target":34962
		}
	],
	"nodes":[
		{
			"name":"geo1",
			"mesh":0
		}
	],
	"meshes":[
		{
			"primitives":[
				{
					"attributes":{
						"TEXCOORD_0":2,
						"POSITION":1
					},
					"indices":0
				}
			],
			"name":"transform37"
		}
	],
	"scenes":[
		{
			"nodes":[0
			]
		}
	],
	"scene":0
}
